<svg width="78" height="72" viewBox="0 0 78 72" fill="none" xmlns="http://www.w3.org/2000/svg">
<g clip-path="url(#clip0)">
<path d="M32 21.3031L28.3332 41.6967H23.2617L23.6045 39.6877C22.0738 41.2292 20.189 42 17.9502 42C16.511 42 15.1859 41.6335 13.9752 40.9007C12.7643 40.1679 11.7934 39.1191 11.0623 37.7544C10.3541 36.3646 10 34.7346 10 32.8646C10 30.6155 10.4454 28.5938 11.3364 26.7997C12.2503 24.9801 13.4839 23.5649 15.0374 22.5541C16.5909 21.518 18.3043 21 20.1777 21C23.0105 21 25.0094 22.0234 26.1747 24.0704L26.654 21.3031H32ZM19.595 37.1101C20.6459 37.1101 21.5826 36.8322 22.405 36.2761C23.2275 35.6949 23.8672 34.8989 24.3241 33.8881C24.7811 32.8772 25.0094 31.7148 25.0094 30.4007C25.0094 29.0108 24.6324 27.9115 23.8785 27.1028C23.1476 26.2942 22.1195 25.8898 20.7945 25.8898C19.7436 25.8898 18.8069 26.1805 17.9845 26.7617C17.162 27.3176 16.5223 28.1011 16.0654 29.1118C15.6085 30.1227 15.3801 31.2852 15.3801 32.5993C15.3801 33.9892 15.7456 35.0885 16.4767 35.8971C17.2306 36.7058 18.27 37.1101 19.595 37.1101Z" fill="url(#paint0_linear)"/>
<path d="M39.2943 42C37.8142 42 36.4082 41.8104 35.0763 41.4314C33.7655 41.0271 32.74 40.509 32 39.8773L33.9027 35.5938C34.6427 36.1751 35.5409 36.6426 36.5984 36.9964C37.677 37.3502 38.7555 37.527 39.833 37.527C40.9546 37.527 41.7898 37.3628 42.3396 37.0343C42.8894 36.6805 43.1637 36.1877 43.1637 35.556C43.1637 35.0505 42.9204 34.6841 42.4347 34.4567C41.948 34.2293 41.1659 33.9892 40.0874 33.7364C38.8606 33.4585 37.8462 33.1552 37.042 32.8267C36.26 32.4982 35.573 31.9675 34.9812 31.2347C34.4104 30.4765 34.125 29.453 34.125 28.1642C34.125 25.9151 34.9071 24.1588 36.4712 22.8953C38.0575 21.6317 40.1294 21 42.6881 21C43.8717 21 45.0243 21.1515 46.1449 21.4548C47.2655 21.7581 48.2168 22.1751 49 22.7057L47.2235 27.027C45.8274 25.9909 44.1471 25.4728 42.1803 25.4728C41.1018 25.4728 40.2777 25.6624 39.7069 26.0414C39.1571 26.4205 38.8816 26.9007 38.8816 27.482C38.8816 28.0126 39.125 28.4042 39.6117 28.657C40.0973 28.8844 40.9115 29.1372 42.0542 29.4151C43.2588 29.6931 44.2423 29.9964 45.0033 30.3248C45.7854 30.6281 46.4624 31.1462 47.0332 31.879C47.604 32.6119 47.8894 33.61 47.8894 34.8737C47.8894 37.148 47.0863 38.9044 45.479 40.1426C43.8938 41.3809 41.8319 42 39.2943 42Z" fill="url(#paint1_linear)"/>
<path d="M59.5837 30.5284L64.4659 42H59.6896L56.3114 34.1132L53.804 37.0944L53.1173 42H49L52.9065 14H57.0238L54.8331 29.6604L61.6419 21.698H67L59.5837 30.5284Z" fill="url(#paint2_linear)"/>
<path d="M3 18.3414V11.4851C3 8.45574 5.52829 6 8.64705 6H69.3524C72.4711 6 75 8.45574 75 11.4851V49.8805C75 52.9098 72.4711 55.3655 69.3524 55.3655H59.4702L62.7731 70.3359C63.0617 71.6444 61.4477 72.5385 60.4353 71.6309L45.3526 58.1081H8.64705C5.52829 58.1081 3 55.6524 3 52.623V49.8805" stroke="url(#paint3_linear)" stroke-width="4.30079"/>
</g>
<defs>
<linearGradient id="paint0_linear" x1="10" y1="13.5704" x2="27.2354" y2="57.5718" gradientUnits="userSpaceOnUse">
<stop stop-color="#485BFF"/>
<stop offset="1" stop-color="#FF59F8"/>
</linearGradient>
<linearGradient id="paint1_linear" x1="12.7972" y1="13.5704" x2="31.0136" y2="56.6136" gradientUnits="userSpaceOnUse">
<stop stop-color="#485BFF"/>
<stop offset="1" stop-color="#FF59F8"/>
</linearGradient>
<linearGradient id="paint2_linear" x1="19.1596" y1="14" x2="39.5211" y2="54.2154" gradientUnits="userSpaceOnUse">
<stop stop-color="#485BFF"/>
<stop offset="1" stop-color="#FF59F8"/>
</linearGradient>
<linearGradient id="paint3_linear" x1="3" y1="6" x2="60.2183" y2="78.9339" gradientUnits="userSpaceOnUse">
<stop stop-color="#485BFF"/>
<stop offset="1" stop-color="#FF59F8"/>
</linearGradient>
<clipPath id="clip0">
<rect width="78" height="72" fill="white"/>
</clipPath>
</defs>
</svg>
